<svg xmlns="http://www.w3.org/2000/svg" viewBox="0 0 122.12 173.86">
    <defs>
        <style>
            .cls-1 {
                fill: #fff;
            }
        </style>
    </defs>
    <g id="Layer_2" data-name="Layer 2">
        <g id="Layer_1-2" data-name="Layer 1">
            <path class="cls-1"
                d="M111.73,1.12C102.72,4.93,85.59,24,81.17,29.2a.58.58,0,0,1-1-.37c0-2.23-.27-5.68-2.21-5.15-16.85,4.58-71.11,72.89-65,88.54.09.22-5.16-5.43-6.93-7.49-.52-.61-1.1-1.39-1.89-1.52a1.43,1.43,0,0,0-1.83,1c-8.06,30.48,7.73,44.3,7.73,44.3l-4.58,21c-1,2.85,1.75,3.44,4.7,4l1.22.25a5,5,0,0,0,5.89-3.93l4.1-18.73s24.32-4,38.34-18a1.21,1.21,0,0,0,.05-1.28c-.87-.8-4.39-.73-2.34-2C85.82,112.28,121.21,32.2,122.09,11,122.56-.57,117.44-1.29,111.73,1.12ZM55.65,88.66,34.41,109.9a2.13,2.13,0,1,1-3-3L52.64,85.65a2.13,2.13,0,0,1,3,3ZM67.27,65,46,86.25a2.12,2.12,0,0,1-3-3L64.26,62a2.13,2.13,0,0,1,3,3Z" />
        </g>
    </g>
</svg>